<svg width="537" height="118" viewBox="0 0 537 118" fill="none" xmlns="http://www.w3.org/2000/svg">
<path d="M47.438 118L42.5839 97.0792H21.5126L16.7688 118H0L31.6621 0.565108H42.5839L65.0893 118H47.438ZM35.4074 28.9386L24.1603 82.0113H40.0465L35.4074 28.9386Z" fill="white"/>
<path d="M64.7152 118V0.565108H77.9997L81.3737 102.683H104.183V118H64.7152Z" fill="white"/>
<path d="M108.744 110.342V0H156.844V21.2801H125.292V58.6623H156.844V73.9792H125.292V95.0245H157.947V110.342H108.744Z" fill="white"/>
<path d="M230 118H211.135L203.192 100.691L197.786 86.9925H196.793L191.277 100.691L183.114 118H165.793L187.416 73.0453L165.793 5.68811H183.114L192.381 44.9019L198.007 58.8491H198.89L204.626 44.9019L218.345 5.68811H230L208.377 73.2943L230 118Z" fill="white"/>
<path d="M275.629 13.3701C280.593 13.3701 284.674 14.0849 287.872 15.5145C291.069 16.86 294.561 18.8782 298.348 21.5692C299.441 22.4102 300.283 22.8307 300.872 22.8307C302.47 22.8307 303.522 20.2658 304.027 15.1361H306.93C306.593 20.6022 306.425 30.273 306.425 44.1485H303.522C302.765 39.6915 301.966 36.0334 301.124 33.1742C300.283 30.2309 298.979 27.6661 297.212 25.4796C294.771 22.4522 291.574 20.0555 287.619 18.2896C283.749 16.5236 279.668 15.6406 275.377 15.6406C269.823 15.6406 264.943 17.4486 260.736 21.0647C256.529 24.6807 253.289 29.8525 251.017 36.58C248.746 43.2234 246.816 61.7316 246.058 73.41C246.058 88.5469 242.019 90.9436 246.816 98.0075C251.696 104.987 259.311 108.477 269.66 108.477C274.709 108.477 279.084 107.174 282.786 104.567C284.301 103.558 285.269 102.591 285.689 101.666C286.194 100.656 286.447 99.3109 286.447 97.6291V85.5195C286.447 81.9876 286.11 79.4227 285.437 77.8249C284.764 76.2271 283.586 75.1339 281.903 74.5453C280.22 73.9566 277.485 73.5782 273.699 73.41V70.8872C278.074 71.1394 284.007 71.2656 291.495 71.2656C297.217 71.2656 310.617 65.2172 313.647 64.9649L316.043 61.7316C319.357 57.9082 321.361 81.194 310.441 77.8249C327.37 73.6623 298.9 75.8908 298.563 77.3204C298.311 78.75 298.185 81.0625 298.185 84.2581V109.234H295.66C295.576 107.552 295.24 105.954 294.651 104.441C294.062 102.843 293.262 102.044 292.252 102.044C291.748 102.044 291.243 102.17 290.738 102.422C290.233 102.675 289.35 103.263 288.087 104.188C285.142 106.459 282.071 108.141 278.874 109.234C275.761 110.411 272.269 111 268.398 111C259.731 111 252.285 109.234 246.058 105.702C239.916 102.086 235.204 96.9143 231.922 90.1867C228.641 83.4592 227 75.4282 227 66.0938C231.922 54.1471 236.713 43.3075 240.163 36.0755C243.697 28.7593 248.535 23.167 254.678 19.2987C260.82 15.3463 267.804 13.3701 275.629 13.3701Z" fill="white"/>
<path d="M359.665 93.2987C358.15 97.9239 355.289 101.918 351.082 105.282C346.959 108.562 341.953 110.202 336.063 110.202C330.089 110.202 324.914 108.856 320.539 106.165C316.163 103.39 312.797 99.5638 310.441 94.6863C308.17 89.7248 307.034 84.0064 307.034 77.5311C307.034 70.2149 308.212 63.8659 310.568 58.4838C312.924 53.1018 316.247 48.9812 320.539 46.122C324.83 43.1787 329.836 41.7071 335.558 41.7071C343.131 41.7071 348.937 44.0197 352.975 48.6448C357.098 53.1859 359.16 60.1237 359.16 69.4581H319.655C319.403 71.8127 319.276 74.5037 319.276 77.5311C319.276 83.0813 320.16 87.9167 321.927 92.0373C323.778 96.1579 326.176 99.3535 329.121 101.624C332.15 103.81 335.306 104.904 338.587 104.904C342.626 104.904 346.202 103.937 349.315 102.002C352.429 100.068 355.037 96.8307 357.141 92.2896L359.665 93.2987ZM335.053 44.1038C331.098 44.1038 327.691 46.0379 324.83 49.9063C321.969 53.7746 320.202 59.493 319.529 67.0614H347.043C347.212 60.5021 346.244 55.036 344.141 50.6631C342.121 46.2902 339.092 44.1038 335.053 44.1038Z" fill="white"/>
<path d="M378.092 92.1634C378.092 95.6113 378.518 96.0792 379.949 97.4247C381.379 98.6861 384.15 93.262 387.684 93.262V95.9109C387.684 103.39 374.853 103.39 372.412 103.39C369.972 103.39 364.882 103.558 357.141 103.895V101.246C360.675 101.246 363.157 100.615 364.587 99.3534C366.018 98.0079 366.733 95.6113 366.733 92.1634V20.1369C366.733 16.2686 366.018 13.4514 364.587 11.6855C363.157 9.9195 360.675 9.03651 357.141 9.03651V6.38755C359.749 6.63983 362.357 6.76597 364.966 6.76597C370.267 6.76597 374.642 6.17732 378.092 5V92.1634Z" fill="white"/>
<path d="M401.567 100.744C396.266 100.744 392.311 99.4409 389.703 96.834C387.178 94.143 385.916 90.4428 385.916 85.7336C385.916 81.9493 386.926 78.8379 388.945 76.3991C391.049 73.9604 393.489 72.0262 396.266 70.5966C399.127 69.1671 402.871 67.6534 407.499 66.0556C412.211 64.4578 415.703 62.9861 417.975 61.6406C420.246 60.2951 421.382 58.4871 421.382 56.2166V48.3958C421.382 43.5184 420.331 40.1967 418.227 38.4307C416.208 36.5806 413.347 35.6556 409.644 35.6556C403.754 35.6556 399.589 37.1693 397.149 40.1967C398.832 40.6171 400.22 41.5001 401.314 42.8456C402.492 44.1911 403.081 45.873 403.081 47.8913C403.081 49.9936 402.408 51.6755 401.062 52.9369C399.716 54.1142 397.991 54.7029 395.887 54.7029C393.531 54.7029 391.764 53.9881 390.586 52.5585C389.408 51.0448 388.819 49.2368 388.819 47.1344C388.819 45.1162 389.282 43.4343 390.208 42.0888C391.217 40.7433 392.69 39.3978 394.625 38.0523C396.644 36.6227 399.211 35.4454 402.324 34.5203C405.437 33.5953 408.845 33.1328 412.547 33.1328C419.11 33.1328 424.075 34.6885 427.441 37.8C429.544 39.7342 430.932 42.0888 431.606 44.8639C432.363 47.5549 432.742 51.1289 432.742 55.5859V90.6531C432.742 92.7554 433.036 94.2691 433.625 95.1941C434.214 96.1192 435.224 96.5817 436.654 96.5817C437.664 96.5817 437.421 98.7681 438.263 98.3477C439.188 97.8431 440.659 100.744 442.334 101.916L443.722 104.061C441.534 105.743 437.065 103.895 435.467 104.651C433.952 105.324 434.593 100.744 432.237 100.744C428.198 100.744 425.379 99.7352 423.78 97.717C422.182 95.6987 421.382 92.9657 421.382 89.5178C418.858 93.7225 415.955 96.6658 412.674 98.3477C409.392 99.9455 405.69 100.744 401.567 100.744ZM407.12 95.6987C412.674 95.6987 417.428 92.5031 421.382 86.112V61.3884C420.625 62.5657 419.573 63.5328 418.227 64.2896C416.881 65.0465 414.819 66.0556 412.042 67.317C408.845 68.6625 406.237 69.966 404.217 71.2274C402.282 72.4047 400.599 74.0445 399.169 76.1469C397.738 78.2492 397.023 80.9402 397.023 84.2199C397.023 88.0041 397.949 90.8633 399.8 92.7975C401.651 94.7316 404.091 95.6987 407.12 95.6987Z" fill="white"/>
<path d="M457.738 43.5992H476.417V46.122H457.738V94.9386C457.738 98.7228 458.411 101.456 459.757 103.138C461.188 104.82 463.207 105.661 465.815 105.661C468.424 105.661 470.654 104.609 472.505 102.507C474.356 100.405 475.913 96.9568 477.175 92.1635L479.699 92.7942C477.595 104.399 472.126 110.202 463.291 110.202C460.43 110.202 458.074 109.865 456.223 109.193C454.372 108.52 452.731 107.469 451.301 106.039C449.45 104.189 448.146 101.918 447.388 99.2274C446.715 96.5364 446.379 92.9203 446.379 88.3793V46.122L434.262 41.7071V35.6156L446.379 43.5992V24.2996C451.091 24.1314 454.877 23.5428 457.738 22.5337V43.5992Z" fill="white"/>
<path d="M508.349 25.6505C516.932 25.6505 523.832 28.5096 529.049 34.228C534.35 39.8623 537 60.3339 537 71.8548C537 83.3756 534.35 91.9532 529.049 97.5875C523.832 103.222 516.932 106.039 508.349 106.039C499.767 106.039 492.825 103.222 487.524 97.5875C482.307 91.9532 479.699 83.3756 479.699 71.8548C479.699 60.3339 482.307 39.8623 487.524 34.228C492.825 28.5096 499.767 25.6505 508.349 25.6505ZM508.349 28.1733C503.301 28.1733 499.304 30.7802 496.359 35.994C493.414 41.1237 491.942 61.0066 491.942 71.8548C491.942 82.7029 493.414 90.6918 496.359 95.8216C499.304 100.951 503.301 103.516 508.349 103.516C513.398 103.516 517.395 100.951 520.34 95.8216C523.285 90.6918 524.757 82.7029 524.757 71.8548C524.757 61.0066 523.285 41.1237 520.34 35.994C517.395 30.7802 513.398 28.1733 508.349 28.1733Z" fill="white"/>
</svg>
