<svg width="767" height="118" viewBox="0 0 767 118" fill="none" xmlns="http://www.w3.org/2000/svg">
<g clip-path="url(#clip0)">
<path d="M52.8411 12.2353C61.9884 12.2353 60.7299 11.7059 73.8411 12.2353C80.7524 15.396 99.9229 16.4566 104.801 22.6762L93.0624 36.288C88.8953 30.986 78.8213 29.6883 73.8411 27.2412C66.8411 26.3236 59.3458 27.2412 52.8411 27.2412C46.3363 27.2412 33.8959 28.9236 30.9484 31.3707C28.001 33.7158 26.5272 36.5707 26.5272 39.9354C26.5272 42.6883 27.5436 45.0334 29.5763 46.9707C31.7107 48.806 59.4207 49.8765 64.7058 51.1L83.4578 55.3824C93.3166 57.6256 100.431 60.9903 104.801 65.4765C109.172 69.8608 111.357 75.5706 111.357 82.6059C111.357 89.2334 109.629 94.9432 106.174 99.7353C102.718 104.426 97.8902 108.045 91.6903 110.594C85.4905 113.041 78.376 114.265 70.3467 114.265C59.8781 114.265 26.6797 112.888 18.752 109.218C10.8243 105.547 4.57366 100.806 0 94.9942L11.8915 80.7707C15.3472 85.6648 20.0733 89.7432 26.0699 93.006C32.1681 96.1668 62.9272 97.2883 70.3467 97.2883C76.5465 97.2883 81.3234 96.2687 84.6774 94.2294C88.0314 92.0883 89.7084 89.0804 89.7084 85.2059C89.7084 82.6569 88.7937 80.4138 86.9642 78.4765C85.2364 76.5393 81.9841 75.0609 77.2071 74.0412L32.7779 69.9119C23.8339 67.9746 16.9225 64.8138 12.044 60.4295C7.1654 56.0452 4.72612 50.0805 4.72612 42.5354C4.72612 36.5197 6.35231 31.1158 9.60469 26.3236C12.8571 21.5314 17.5324 17.7589 23.6306 15.006C29.8304 12.1511 44.2019 12.2353 52.8411 12.2353Z" fill="#FBFBFB"/>
<path d="M125.835 99.7883L156.296 100.347V117.324L104.797 116.765V15.8235H125.835V99.7883Z" fill="#FBFBFB"/>
<path d="M180.835 14.2942V115.235H159.796V14.2942H180.835Z" fill="#FBFBFB"/>
<path d="M256.739 12.7646V113.706H232.651L212.561 55.8942L203.871 39.3765V51.2648L204.329 56.8118V114.265L185.424 115.235V14.2941H211.796L229.449 71.953L238.139 88.6235H238.444L237.834 71.1882L239.169 12.2353L256.739 12.7646Z" fill="#FBFBFB"/>
<path d="M282.381 14.2942V56.8118L323.696 14.2942H348.089L311.957 55.4354L349.308 115.235H325.221L296.711 69.0472L282.381 85.4118V115.235H261.342V14.2942H282.381Z" fill="#FBFBFB"/>
<path d="M434 14.2942L391.039 77.459V115.235H370V83.5766L339.323 14.2942H361.734L377.894 44.4236L385.517 60.3295L393.292 44.4236L411.742 14.2942H434Z" fill="#FBFBFB"/>
<path d="M432.728 115.5V112.42L444.894 107.8L448.128 21.868L434.884 16.94V13.86H461.526L497.716 98.252L534.368 13.86H559.932V16.94L546.996 21.714L549.614 107.8L560.394 112.42V115.5H526.514V112.42L537.91 107.954L536.216 28.182L498.024 116.27H492.634L455.212 28.49L453.364 107.954L465.838 112.42V115.5H432.728Z" fill="#FBFBFB"/>
<path d="M589.773 112.04C583.203 112.04 577.453 110.449 572.525 107.266C567.597 104.083 563.747 99.771 560.975 94.33C558.203 88.8887 556.817 82.7287 556.817 75.85C556.817 68.9713 558.203 62.8113 560.975 57.37C563.747 51.9287 567.597 47.6167 572.525 44.434C577.453 41.2513 583.203 39.66 589.773 39.66C596.344 39.66 602.093 41.2513 607.021 44.434C611.95 47.6167 615.8 51.9287 618.572 57.37C621.344 62.8113 622.729 68.9713 622.729 75.85C622.729 82.7287 621.344 88.8887 618.572 94.33C615.8 99.771 611.95 104.083 607.021 107.266C602.093 110.449 596.344 112.04 589.773 112.04ZM591.93 106.65C596.242 106.65 599.835 105.315 602.71 102.646C605.584 99.977 607.74 96.537 609.177 92.328C610.615 88.016 611.333 83.55 611.333 78.93C611.333 73.078 610.461 67.5853 608.715 62.452C607.073 57.216 604.506 53.0067 601.015 49.824C597.627 46.5387 593.264 44.896 587.925 44.896C583.613 44.896 579.969 46.1793 576.992 48.746C574.117 51.3127 571.909 54.7007 570.369 58.91C568.932 63.1193 568.214 67.688 568.214 72.616C568.214 78.5707 569.086 84.166 570.831 89.402C572.577 94.5353 575.195 98.693 578.685 101.876C582.176 105.059 586.591 106.65 591.93 106.65Z" fill="#FBFBFB"/>
<path d="M659.239 117.04C652.668 117.04 646.919 115.449 641.991 112.266C637.063 109.083 633.213 104.771 630.441 99.33C627.669 93.8887 626.283 87.7287 626.283 80.85C626.283 73.9713 627.669 67.8113 630.441 62.37C633.213 56.9287 637.063 52.6167 641.991 49.434C646.919 46.2513 652.668 44.66 659.239 44.66C665.81 44.66 671.559 46.2513 676.487 49.434C681.415 52.6167 685.265 56.9287 688.037 62.37C690.809 67.8113 692.195 73.9713 692.195 80.85C692.195 87.7287 690.809 93.8887 688.037 99.33C685.265 104.771 681.415 109.083 676.487 112.266C671.559 115.449 665.81 117.04 659.239 117.04ZM661.395 111.65C665.707 111.65 669.3 110.315 672.175 107.646C675.05 104.977 677.206 101.537 678.643 97.328C680.08 93.016 680.799 88.55 680.799 83.93C680.799 78.078 679.926 72.5853 678.181 67.452C676.538 62.216 673.972 58.0067 670.481 54.824C667.093 51.5387 662.73 49.896 657.391 49.896C653.079 49.896 649.434 51.1793 646.457 53.746C643.582 56.3127 641.375 59.7007 639.835 63.91C638.398 68.1193 637.679 72.688 637.679 77.616C637.679 83.5707 638.552 89.166 640.297 94.402C642.042 99.5353 644.66 103.693 648.151 106.876C651.642 110.059 656.056 111.65 661.395 111.65Z" fill="#FBFBFB"/>
<path d="M722.775 117.04C717.641 117.04 713.073 115.757 709.069 113.19C705.065 110.623 701.882 106.927 699.521 102.102C697.262 97.2767 696.133 91.5787 696.133 85.008C696.133 76.384 697.775 69.0947 701.061 63.14C704.449 57.0827 708.915 52.514 714.459 49.434C720.105 46.2513 726.214 44.66 732.785 44.66C735.454 44.66 737.918 44.8653 740.177 45.276C742.435 45.6867 744.54 46.2513 746.491 46.97V13.398L736.019 7.39201V5.85201L755.731 0H756.963V109.34L767.897 113.036V115.5H748.031L746.645 107.646H745.875C742.076 110.829 738.329 113.19 734.633 114.73C730.937 116.27 726.984 117.04 722.775 117.04ZM706.297 81.928C706.297 88.088 707.375 93.1187 709.531 97.02C711.687 100.921 714.51 103.847 718.001 105.798C721.594 107.646 725.444 108.57 729.551 108.57C732.425 108.57 735.3 108.108 738.175 107.184C741.152 106.157 743.924 104.669 746.491 102.718V56.826C743.719 54.8753 740.998 53.3867 738.329 52.36C735.659 51.3333 732.682 50.82 729.397 50.82C725.29 50.82 721.44 51.8467 717.847 53.9C714.356 55.9533 711.533 59.29 709.377 63.91C707.323 68.4273 706.297 74.4333 706.297 81.928Z" fill="#FBFBFB"/>
</g>
<defs>
<clipPath id="clip0">
<rect width="767" height="118" fill="white"/>
</clipPath>
</defs>
</svg>
